Coordinates
version=1
nRows=14
nColumns=40
inDegrees=yes

Units are S.I. units (second, meters, Newtons, ...)
Angles are in degrees.

endheader
time	pelvis_tilt	pelvis_list	pelvis_rotation	pelvis_tx	pelvis_ty	pelvis_tz	hip_flexion_r	hip_adduction_r	hip_rotation_r	knee_angle_r	knee_angle_r_beta	ankle_angle_r	subtalar_angle_r	mtp_angle_r	hip_flexion_l	hip_adduction_l	hip_rotation_l	knee_angle_l	knee_angle_l_beta	ankle_angle_l	subtalar_angle_l	mtp_angle_l	lumbar_extension	lumbar_bending	lumbar_rotation	arm_flex_r	arm_add_r	arm_rot_r	elbow_flex_r	pro_sup_r	wrist_flex_r	wrist_dev_r	arm_flex_l	arm_add_l	arm_rot_l	elbow_flex_l	pro_sup_l	wrist_flex_l	wrist_dev_l
     26.20000000	     -6.04157532	     -4.96640970	      4.79408835	      1.01349803	      0.92244228	      0.43171559	      3.16321421	      0.09023480	    -14.97774132	     26.69188773	     26.69188773	     16.36911216	      1.00135709	     -6.72654592	     27.83496522	     -5.22386389	     -3.68583000	     24.27219501	     24.27219501	      6.68325217	    -12.86002990	      3.79692282	     -6.93786663	      5.07492780	      4.24661568	     37.18216881	    -17.27902115	     -6.31020865	     91.75053003	     44.96908648	      0.00000000	      0.00000000	    -10.45092347	     -7.18298426	      6.63012426	     25.87742711	     44.60013582	      0.00000000	      0.00000000
     26.21171429	     -6.10792636	     -4.84174736	      4.55294600	      1.01305764	      0.92371814	      0.42957996	      4.67492545	     -0.65221889	    -14.37107693	     30.03316726	     30.03316726	     15.06999924	     -0.45184237	     -7.91972153	     27.08074901	     -5.10180755	     -4.16688686	     23.78398781	     23.78398781	      7.00357252	    -12.53133885	      3.37713522	     -6.92757508	      4.96155818	      4.22426674	     35.46446090	    -16.98871311	     -6.45949723	     90.67322784	     45.00364622	      0.00000000	      0.00000000	     -9.20363500	     -7.26708700	      6.43045910	     26.16315365	     44.66675245	      0.00000000	      0.00000000
     26.22342857	     -6.16296386	     -4.73893942	      4.29188419	      1.01251447	      0.92480079	      0.42766528	      6.37663707	     -1.33349915	    -13.64115410	     33.62577267	     33.62577267	     13.49090018	     -2.18871881	     -9.08343285	     26.33217876	     -5.01313620	     -4.63025096	     23.31393540	     23.31393540	      7.31684911	    -12.19592931	      2.88447821	     -6.92928729	      4.84189111	      4.18829880	     33.71445327	    -16.65192936	     -6.56928173	     89.43112138	     45.04181205	      0.00000000	      0.00000000	     -7.89407520	     -7.39820390	      6.20670036	     26.52884504	     44.73678698	      0.00000000	      0.00000000
     26.23514286	     -6.16877774	     -4.61849610	      4.03488169	      1.01184226	      0.92572200	      0.42587961	      8.19114236	     -1.98964999	    -12.84335690	     37.39701556	     37.39701556	     11.71421039	     -4.06958642	     -9.97883211	     25.58794544	     -4.91344307	     -5.10514412	     22.92458109	     22.92458109	      7.59452090	    -11.89686002	      2.38400903	     -7.01782059	      4.72905667	      4.09504904	     31.95004349	    -16.25630988	     -6.58565554	     88.09967132	     45.07923134	      0.00000000	      0.00000000	     -6.51715908	     -7.58846950	      5.98792633	     26.98280638	     44.80407839	      0.00000000	      0.00000000
     26.24685714	     -6.15964093	     -4.70259046	      3.75918488	      1.01106726	      0.92637006	      0.42454710	     10.04725276	     -2.11363311	    -11.59141611	     40.90278020	     40.90278020	      8.74411567	     -7.54950282	    -12.91292553	     24.88168600	     -5.08220260	     -5.57067603	     22.53580096	     22.53580096	      7.37307543	    -11.65444113	      0.42016591	     -7.01934612	      4.78990380	      4.02448746	     30.52460810	    -15.51346272	     -7.35128842	     85.31211940	     45.19417754	      0.00000000	      0.00000000	     -5.09105952	     -7.68844265	      5.03896526	     27.37855287	     45.02109987	      0.00000000	      0.00000000
     26.25857143	     -6.11452515	     -4.46484168	      3.50214726	      1.01016172	      0.92685337	      0.42294192	     12.06287993	     -2.88292742	    -10.93202197	     44.88598035	     44.88598035	      6.95177956	     -8.99714523	    -12.99075541	     24.15118045	     -4.84657028	     -5.99959668	     22.25234438	     22.25234438	      7.70711680	    -11.49098509	      0.05677855	     -7.21324867	      4.55704017	      3.75094564	     28.69410439	    -15.08793648	     -6.98208645	     84.19549815	     45.21098249	      0.00000000	      0.00000000	     -3.67426958	     -8.02383644	      4.83118559	     27.94631075	     45.08256500	      0.00000000	      0.00000000
     26.27028571	     -6.07957980	     -4.42678393	      3.24155317	      1.00916348	      0.92712329	      0.42170154	     14.18646413	     -3.14204239	     -9.92548393	     48.74430201	     48.74430201	      5.26875879	    -11.09303131	    -11.77784368	     23.51655891	     -4.86844298	     -6.42194106	     22.03632955	     22.03632955	      7.67169829	    -11.35386537	     -1.36706763	     -7.30978922	      4.50414137	      3.43858017	     27.31546768	    -14.53219252	     -6.83495628	     81.32873045	     45.29529562	      0.00000000	      0.00000000	     -2.28714204	     -8.30214583	      4.04201718	     28.70215009	     45.25472985	      0.00000000	      0.00000000
     26.28200000	     -6.01211407	     -4.21385391	      3.00334126	      1.00808235	      0.92727222	      0.42033334	     16.28419702	     -3.66376137	     -9.13640106	     52.45451027	     52.45451027	      3.65311821	    -12.57380148	    -11.04167034	     22.88897426	     -4.66279107	     -6.75684730	     21.93420318	     21.93420318	      8.02622593	    -11.27378162	     -1.70918750	     -7.51538428	      4.31273395	      3.26094074	     25.42876870	    -14.27335185	     -6.51293023	     79.85511340	     45.32448932	      0.00000000	      0.00000000	     -0.72067425	     -8.67657197	      3.84575306	     29.37700942	     45.31367760	      0.00000000	      0.00000000
     26.29371429	     -5.88485991	     -4.06137353	      2.79587906	      1.00695898	      0.92740732	      0.41903850	     18.26999294	     -4.03456735	     -8.41245010	     55.83326691	     55.83326691	      2.27592270	    -13.93107905	    -10.00541549	     22.26517432	     -4.52878320	     -7.07934615	     21.93190281	     21.93190281	      8.43759894	    -11.20094742	     -2.10172315	     -7.80486879	      4.19902025	      3.09133939	     23.55978105	    -14.00270590	     -6.24861066	     78.08192479	     45.36521733	      0.00000000	      0.00000000	      0.96418446	     -9.07150894	      3.69033204	     30.06778331	     45.36660606	      0.00000000	      0.00000000
     26.30542857	     -5.76824576	     -3.98611707	      2.58523043	      1.00577623	      0.92753296	      0.41792994	     20.41675348	     -4.22009690	     -7.66579163	     59.27653157	     59.27653157	      2.78015326	    -14.11682254	     -4.05338020	     21.69209156	     -4.52656653	     -7.50328156	     21.95394461	     21.95394461	      8.53975428	    -10.97911845	     -3.22414657	     -7.94712036	      4.14937703	      2.51262196	     22.73203349	    -13.17512249	     -6.09761526	     73.32395883	     45.50434077	      0.00000000	      0.00000000	      2.46128058	     -9.51474182	      3.39898992	     30.60207824	     45.45409565	      0.00000000	      0.00000000
     26.31714286	     -5.65701728	     -3.82438495	      2.39797799	      1.00456665	      0.92763664	      0.41661466	     22.32287565	     -4.50965026	     -7.03964648	     61.92383159	     61.92383159	      1.84971414	    -15.02346494	     -3.50015559	     21.09682103	     -4.34265774	     -7.70678168	     21.94026944	     21.94026944	      8.92378238	    -10.96994620	     -3.40696774	     -8.20973140	      4.08836540	      2.40724947	     20.69659295	    -13.12597342	     -5.75042946	     71.76497160	     45.53339789	      0.00000000	      0.00000000	      4.25295780	     -9.90625611	      3.26032650	     31.40144103	     45.50449658	      0.00000000	      0.00000000
     26.32885714	     -5.54210319	     -3.75494674	      2.20819723	      1.00334838	      0.92785998	      0.41542609	     24.14826855	     -4.66083421	     -6.52789947	     64.14800971	     64.14800971	      1.31129681	    -15.68114310	     -2.57731490	     20.51273986	     -4.27795304	     -7.94076445	     21.93841603	     21.93841603	      9.30258630	    -10.87555360	     -3.58237859	     -8.46063663	      4.11883913	      2.51814920	     18.74849451	    -13.20141438	     -5.50735921	     69.29538249	     45.59541771	      0.00000000	      0.00000000	      6.18246088	    -10.21047750	      3.19907387	     32.18733242	     45.54555615	      0.00000000	      0.00000000
     26.34057143	     -5.40973384	     -3.73442361	      2.03546305	      1.00216836	      0.92823849	      0.41429026	     25.94132227	     -4.72696811	     -6.08934222	     66.09404079	     66.09404079	      1.97874000	    -15.54060590	      1.03039270	     19.89558376	     -4.24815348	     -8.12331675	     21.90924784	     21.90924784	      9.73943421	    -10.75446211	     -3.65893023	     -8.64314155	      4.21357079	      1.95010435	     17.91340983	    -12.64567397	     -5.08641338	     64.47533369	     45.70146359	      0.00000000	      0.00000000	      7.81175167	    -10.76777334	      3.48205352	     32.76319003	     45.56222537	      0.00000000	      0.00000000
     26.35228571	     -5.28391705	     -3.69148651	      1.84674263	      1.00107044	      0.92863079	      0.41319725	     27.53663631	     -4.79793104	     -5.71709023	     67.35625930	     67.35625930	      1.68030912	    -15.91366291	      1.04153824	     19.25579361	     -4.18473111	     -8.28543222	     21.83965521	     21.83965521	     10.12370840	    -10.72663181	     -3.75759869	     -8.91175294	      4.29700564	      1.91238040	     15.80712345	    -12.64941053	     -4.86278384	     62.61361894	     45.74358838	      0.00000000	      0.00000000	      9.62225468	    -11.14889571	      3.39260863	     33.50708208	     45.60400555	      0.00000000	      0.00000000
